solid ASCII
  facet normal 0.000000e+00 0.000000e+00 -1.000000e+00
    outer loop
      vertex   -5.225000e+00 4.000000e-01 1.400000e+01
      vertex   5.225299e+00 4.000000e-01 1.400000e+01
      vertex   -5.225000e+00 -3.900000e-01 1.400000e+01
    endloop
  endfacet
  facet normal 0.000000e+00 0.000000e+00 -1.000000e+00
    outer loop
      vertex   -5.225000e+00 -3.900000e-01 1.400000e+01
      vertex   5.225299e+00 4.000000e-01 1.400000e+01
      vertex   5.225299e+00 -3.900000e-01 1.400000e+01
    endloop
  endfacet
  facet normal 1.327980e-16 1.000000e+00 -3.083953e-17
    outer loop
      vertex   -5.225000e+00 4.000000e-01 1.400000e+01
      vertex   -5.225000e+00 4.000000e-01 1.580000e+01
      vertex   5.225299e+00 4.000000e-01 1.400000e+01
    endloop
  endfacet
  facet normal 1.274861e-16 1.000000e+00 -6.167906e-17
    outer loop
      vertex   5.225299e+00 4.000000e-01 1.400000e+01
      vertex   -5.225000e+00 4.000000e-01 1.580000e+01
      vertex   5.225299e+00 4.000000e-01 1.580000e+01
    endloop
  endfacet
  facet normal 0.000000e+00 -1.000000e+00 0.000000e+00
    outer loop
      vertex   5.650000e+00 -2.700000e+00 1.150000e+01
      vertex   5.650000e+00 -2.700000e+00 1.580000e+01
      vertex   -5.650000e+00 -2.700000e+00 1.150000e+01
    endloop
  endfacet
  facet normal 0.000000e+00 -1.000000e+00 0.000000e+00
    outer loop
      vertex   -5.650000e+00 -2.700000e+00 1.150000e+01
      vertex   5.650000e+00 -2.700000e+00 1.580000e+01
      vertex   -5.650000e+00 -2.700000e+00 1.580000e+01
    endloop
  endfacet
  facet normal 0.000000e+00 0.000000e+00 1.000000e+00
    outer loop
      vertex   5.225299e+00 4.000000e-01 1.580000e+01
      vertex   -5.225000e+00 4.000000e-01 1.580000e+01
      vertex   5.225299e+00 -5.000000e-01 1.580000e+01
    endloop
  endfacet
  facet normal 0.000000e+00 0.000000e+00 1.000000e+00
    outer loop
      vertex   5.225299e+00 -5.000000e-01 1.580000e+01
      vertex   -5.225000e+00 4.000000e-01 1.580000e+01
      vertex   -5.225000e+00 -5.000000e-01 1.580000e+01
    endloop
  endfacet
  facet normal 0.000000e+00 0.000000e+00 1.000000e+00
    outer loop
      vertex   5.225299e+00 -5.000000e-01 1.580000e+01
      vertex   -5.225000e+00 -5.000000e-01 1.580000e+01
      vertex   5.650000e+00 -1.400000e+00 1.580000e+01
    endloop
  endfacet
  facet normal 0.000000e+00 0.000000e+00 1.000000e+00
    outer loop
      vertex   5.650000e+00 -1.400000e+00 1.580000e+01
      vertex   -5.225000e+00 -5.000000e-01 1.580000e+01
      vertex   -5.650000e+00 -1.400000e+00 1.580000e+01
    endloop
  endfacet
  facet normal 0.000000e+00 0.000000e+00 1.000000e+00
    outer loop
      vertex   5.650000e+00 -1.400000e+00 1.580000e+01
      vertex   -5.650000e+00 -1.400000e+00 1.580000e+01
      vertex   5.650000e+00 -2.700000e+00 1.580000e+01
    endloop
  endfacet
  facet normal 0.000000e+00 0.000000e+00 1.000000e+00
    outer loop
      vertex   5.650000e+00 -2.700000e+00 1.580000e+01
      vertex   -5.650000e+00 -1.400000e+00 1.580000e+01
      vertex   -5.650000e+00 -2.700000e+00 1.580000e+01
    endloop
  endfacet
  facet normal 0.000000e+00 0.000000e+00 1.000000e+00
    outer loop
      vertex   -5.225000e+00 -5.000000e-01 1.580000e+01
      vertex   -5.325000e+00 -5.000000e-01 1.580000e+01
      vertex   -5.650000e+00 -1.400000e+00 1.580000e+01
    endloop
  endfacet
  facet normal 0.000000e+00 -0.000000e+00 1.000000e+00
    outer loop
      vertex   -5.650000e+00 -1.400000e+00 1.580000e+01
      vertex   -5.325000e+00 -5.000000e-01 1.580000e+01
      vertex   -6.500000e+00 -5.000000e-01 1.580000e+01
    endloop
  endfacet
  facet normal 0.000000e+00 0.000000e+00 1.000000e+00
    outer loop
      vertex   -5.650000e+00 -1.400000e+00 1.580000e+01
      vertex   -6.500000e+00 -5.000000e-01 1.580000e+01
      vertex   -6.500000e+00 -1.400000e+00 1.580000e+01
    endloop
  endfacet
  facet normal 0.000000e+00 -0.000000e+00 1.000000e+00
    outer loop
      vertex   6.500000e+00 -1.400000e+00 1.580000e+01
      vertex   6.500000e+00 -5.000000e-01 1.580000e+01
      vertex   5.650000e+00 -1.400000e+00 1.580000e+01
    endloop
  endfacet
  facet normal 0.000000e+00 -0.000000e+00 1.000000e+00
    outer loop
      vertex   5.650000e+00 -1.400000e+00 1.580000e+01
      vertex   6.500000e+00 -5.000000e-01 1.580000e+01
      vertex   5.225299e+00 -5.000000e-01 1.580000e+01
    endloop
  endfacet
  facet normal 1.000000e+00 0.000000e+00 0.000000e+00
    outer loop
      vertex   5.650000e+00 -1.400000e+00 1.580000e+01
      vertex   5.650000e+00 -2.700000e+00 1.580000e+01
      vertex   5.650000e+00 -1.510000e+00 1.450000e+01
    endloop
  endfacet
  facet normal 1.000000e+00 0.000000e+00 0.000000e+00
    outer loop
      vertex   5.650000e+00 -1.510000e+00 1.450000e+01
      vertex   5.650000e+00 -2.700000e+00 1.580000e+01
      vertex   5.650000e+00 -2.700000e+00 1.150000e+01
    endloop
  endfacet
  facet normal 1.000000e+00 0.000000e+00 0.000000e+00
    outer loop
      vertex   5.650000e+00 -1.510000e+00 1.450000e+01
      vertex   5.650000e+00 -2.700000e+00 1.150000e+01
      vertex   5.650000e+00 -1.510000e+00 1.150000e+01
    endloop
  endfacet
  facet normal 1.000000e+00 0.000000e+00 0.000000e+00
    outer loop
      vertex   5.650000e+00 -1.510000e+00 1.450000e+01
      vertex   5.650000e+00 -1.400000e+00 1.450000e+01
      vertex   5.650000e+00 -1.400000e+00 1.580000e+01
    endloop
  endfacet
  facet normal 0.000000e+00 -1.000000e+00 0.000000e+00
    outer loop
      vertex   6.500000e+00 -1.400000e+00 1.450000e+01
      vertex   6.500000e+00 -1.400000e+00 1.580000e+01
      vertex   5.650000e+00 -1.400000e+00 1.450000e+01
    endloop
  endfacet
  facet normal 0.000000e+00 -1.000000e+00 0.000000e+00
    outer loop
      vertex   5.650000e+00 -1.400000e+00 1.450000e+01
      vertex   6.500000e+00 -1.400000e+00 1.580000e+01
      vertex   5.650000e+00 -1.400000e+00 1.580000e+01
    endloop
  endfacet
  facet normal 1.000000e+00 -9.868649e-16 0.000000e+00
    outer loop
      vertex   6.500000e+00 -1.400000e+00 1.580000e+01
      vertex   6.500000e+00 -1.400000e+00 1.450000e+01
      vertex   6.500000e+00 -5.000000e-01 1.580000e+01
    endloop
  endfacet
  facet normal 1.000000e+00 -1.973730e-15 6.832142e-16
    outer loop
      vertex   6.500000e+00 -5.000000e-01 1.580000e+01
      vertex   6.500000e+00 -1.400000e+00 1.450000e+01
      vertex   6.500000e+00 -5.000000e-01 1.450000e+01
    endloop
  endfacet
  facet normal 1.001612e-15 1.000000e+00 6.843158e-31
    outer loop
      vertex   6.500000e+00 -5.000000e-01 1.580000e+01
      vertex   6.500000e+00 -5.000000e-01 1.450000e+01
      vertex   5.225299e+00 -5.000000e-01 1.580000e+01
    endloop
  endfacet
  facet normal 1.001612e-15 1.000000e+00 0.000000e+00
    outer loop
      vertex   5.225299e+00 -5.000000e-01 1.580000e+01
      vertex   6.500000e+00 -5.000000e-01 1.450000e+01
      vertex   5.225299e+00 -5.000000e-01 1.450000e+01
    endloop
  endfacet
  facet normal -1.000000e+00 -7.791457e-10 0.000000e+00
    outer loop
      vertex   -6.500000e+00 -1.400000e+00 1.450000e+01
      vertex   -6.500000e+00 -1.400000e+00 1.580000e+01
      vertex   -6.500000e+00 -5.000000e-01 1.450000e+01
    endloop
  endfacet
  facet normal -1.000000e+00 -7.791457e-10 0.000000e+00
    outer loop
      vertex   -6.500000e+00 -5.000000e-01 1.450000e+01
      vertex   -6.500000e+00 -1.400000e+00 1.580000e+01
      vertex   -6.500000e+00 -5.000000e-01 1.580000e+01
    endloop
  endfacet
  facet normal 0.000000e+00 -1.000000e+00 0.000000e+00
    outer loop
      vertex   -6.500000e+00 -1.400000e+00 1.580000e+01
      vertex   -6.500000e+00 -1.400000e+00 1.450000e+01
      vertex   -5.650000e+00 -1.400000e+00 1.580000e+01
    endloop
  endfacet
  facet normal 0.000000e+00 -1.000000e+00 -0.000000e+00
    outer loop
      vertex   -5.650000e+00 -1.400000e+00 1.580000e+01
      vertex   -6.500000e+00 -1.400000e+00 1.450000e+01
      vertex   -5.650000e+00 -1.400000e+00 1.450000e+01
    endloop
  endfacet
  facet normal 0.000000e+00 1.000000e+00 0.000000e+00
    outer loop
      vertex   -5.325000e+00 -5.000000e-01 1.450000e+01
      vertex   -5.325000e+00 -5.000000e-01 1.580000e+01
      vertex   -5.225000e+00 -5.000000e-01 1.450000e+01
    endloop
  endfacet
  facet normal 0.000000e+00 1.000000e+00 -0.000000e+00
    outer loop
      vertex   -5.225000e+00 -5.000000e-01 1.450000e+01
      vertex   -5.325000e+00 -5.000000e-01 1.580000e+01
      vertex   -5.225000e+00 -5.000000e-01 1.580000e+01
    endloop
  endfacet
  facet normal 7.609104e-09 1.000000e+00 -0.000000e+00
    outer loop
      vertex   -6.500000e+00 -5.000000e-01 1.450000e+01
      vertex   -6.500000e+00 -5.000000e-01 1.580000e+01
      vertex   -5.325000e+00 -5.000000e-01 1.450000e+01
    endloop
  endfacet
  facet normal 7.609104e-09 1.000000e+00 -0.000000e+00
    outer loop
      vertex   -5.325000e+00 -5.000000e-01 1.450000e+01
      vertex   -6.500000e+00 -5.000000e-01 1.580000e+01
      vertex   -5.325000e+00 -5.000000e-01 1.580000e+01
    endloop
  endfacet
  facet normal 3.340494e-16 1.000000e+00 -0.000000e+00
    outer loop
      vertex   5.650000e+00 -1.510000e+00 1.150000e+01
      vertex   -5.650000e+00 -1.510000e+00 1.150000e+01
      vertex   5.650000e+00 -1.510000e+00 1.450000e+01
    endloop
  endfacet
  facet normal 3.340494e-16 1.000000e+00 0.000000e+00
    outer loop
      vertex   5.650000e+00 -1.510000e+00 1.450000e+01
      vertex   -5.650000e+00 -1.510000e+00 1.150000e+01
      vertex   -5.650000e+00 -1.510000e+00 1.450000e+01
    endloop
  endfacet
  facet normal 0.000000e+00 0.000000e+00 -1.000000e+00
    outer loop
      vertex   5.650000e+00 -2.700000e+00 1.150000e+01
      vertex   -5.650000e+00 -2.700000e+00 1.150000e+01
      vertex   5.650000e+00 -1.510000e+00 1.150000e+01
    endloop
  endfacet
  facet normal -0.000000e+00 0.000000e+00 -1.000000e+00
    outer loop
      vertex   5.650000e+00 -1.510000e+00 1.150000e+01
      vertex   -5.650000e+00 -2.700000e+00 1.150000e+01
      vertex   -5.650000e+00 -1.510000e+00 1.150000e+01
    endloop
  endfacet
  facet normal 1.000000e+00 0.000000e+00 -0.000000e+00
    outer loop
      vertex   5.225299e+00 -3.900000e-01 1.400000e+01
      vertex   5.225299e+00 4.000000e-01 1.400000e+01
      vertex   5.225299e+00 -3.900000e-01 1.450000e+01
    endloop
  endfacet
  facet normal 1.000000e+00 -0.000000e+00 0.000000e+00
    outer loop
      vertex   5.225299e+00 -3.900000e-01 1.450000e+01
      vertex   5.225299e+00 4.000000e-01 1.400000e+01
      vertex   5.225299e+00 4.000000e-01 1.580000e+01
    endloop
  endfacet
  facet normal 1.000000e+00 0.000000e+00 -0.000000e+00
    outer loop
      vertex   5.225299e+00 -3.900000e-01 1.450000e+01
      vertex   5.225299e+00 4.000000e-01 1.580000e+01
      vertex   5.225299e+00 -5.000000e-01 1.580000e+01
    endloop
  endfacet
  facet normal 1.000000e+00 0.000000e+00 0.000000e+00
    outer loop
      vertex   5.225299e+00 -5.000000e-01 1.580000e+01
      vertex   5.225299e+00 -5.000000e-01 1.450000e+01
      vertex   5.225299e+00 -3.900000e-01 1.450000e+01
    endloop
  endfacet
  facet normal 0.000000e+00 0.000000e+00 -1.000000e+00
    outer loop
      vertex   5.650000e+00 -1.510000e+00 1.450000e+01
      vertex   -5.650000e+00 -1.510000e+00 1.450000e+01
      vertex   5.650000e+00 -1.400000e+00 1.450000e+01
    endloop
  endfacet
  facet normal -0.000000e+00 0.000000e+00 -1.000000e+00
    outer loop
      vertex   5.650000e+00 -1.400000e+00 1.450000e+01
      vertex   -5.650000e+00 -1.510000e+00 1.450000e+01
      vertex   -5.650000e+00 -1.400000e+00 1.450000e+01
    endloop
  endfacet
  facet normal 0.000000e+00 0.000000e+00 -1.000000e+00
    outer loop
      vertex   5.650000e+00 -1.400000e+00 1.450000e+01
      vertex   -5.650000e+00 -1.400000e+00 1.450000e+01
      vertex   -5.225000e+00 -5.000000e-01 1.450000e+01
    endloop
  endfacet
  facet normal -0.000000e+00 0.000000e+00 -1.000000e+00
    outer loop
      vertex   -5.225000e+00 -5.000000e-01 1.450000e+01
      vertex   -5.650000e+00 -1.400000e+00 1.450000e+01
      vertex   -5.325000e+00 -5.000000e-01 1.450000e+01
    endloop
  endfacet
  facet normal -0.000000e+00 0.000000e+00 -1.000000e+00
    outer loop
      vertex   -5.325000e+00 -5.000000e-01 1.450000e+01
      vertex   -5.650000e+00 -1.400000e+00 1.450000e+01
      vertex   -6.500000e+00 -5.000000e-01 1.450000e+01
    endloop
  endfacet
  facet normal 0.000000e+00 0.000000e+00 -1.000000e+00
    outer loop
      vertex   -6.500000e+00 -5.000000e-01 1.450000e+01
      vertex   -5.650000e+00 -1.400000e+00 1.450000e+01
      vertex   -6.500000e+00 -1.400000e+00 1.450000e+01
    endloop
  endfacet
  facet normal 0.000000e+00 0.000000e+00 -1.000000e+00
    outer loop
      vertex   -5.225000e+00 -3.900000e-01 1.450000e+01
      vertex   5.225299e+00 -3.900000e-01 1.450000e+01
      vertex   -5.225000e+00 -5.000000e-01 1.450000e+01
    endloop
  endfacet
  facet normal 0.000000e+00 0.000000e+00 -1.000000e+00
    outer loop
      vertex   -5.225000e+00 -5.000000e-01 1.450000e+01
      vertex   5.225299e+00 -3.900000e-01 1.450000e+01
      vertex   5.225299e+00 -5.000000e-01 1.450000e+01
    endloop
  endfacet
  facet normal 0.000000e+00 0.000000e+00 -1.000000e+00
    outer loop
      vertex   -5.225000e+00 -5.000000e-01 1.450000e+01
      vertex   5.225299e+00 -5.000000e-01 1.450000e+01
      vertex   5.650000e+00 -1.400000e+00 1.450000e+01
    endloop
  endfacet
  facet normal 0.000000e+00 0.000000e+00 -1.000000e+00
    outer loop
      vertex   5.650000e+00 -1.400000e+00 1.450000e+01
      vertex   5.225299e+00 -5.000000e-01 1.450000e+01
      vertex   6.500000e+00 -5.000000e-01 1.450000e+01
    endloop
  endfacet
  facet normal 0.000000e+00 0.000000e+00 -1.000000e+00
    outer loop
      vertex   5.650000e+00 -1.400000e+00 1.450000e+01
      vertex   6.500000e+00 -5.000000e-01 1.450000e+01
      vertex   6.500000e+00 -1.400000e+00 1.450000e+01
    endloop
  endfacet
  facet normal -1.000000e+00 0.000000e+00 0.000000e+00
    outer loop
      vertex   -5.225000e+00 -5.000000e-01 1.580000e+01
      vertex   -5.225000e+00 4.000000e-01 1.580000e+01
      vertex   -5.225000e+00 -3.900000e-01 1.450000e+01
    endloop
  endfacet
  facet normal -1.000000e+00 0.000000e+00 0.000000e+00
    outer loop
      vertex   -5.225000e+00 -3.900000e-01 1.450000e+01
      vertex   -5.225000e+00 4.000000e-01 1.580000e+01
      vertex   -5.225000e+00 4.000000e-01 1.400000e+01
    endloop
  endfacet
  facet normal -1.000000e+00 0.000000e+00 0.000000e+00
    outer loop
      vertex   -5.225000e+00 -3.900000e-01 1.450000e+01
      vertex   -5.225000e+00 4.000000e-01 1.400000e+01
      vertex   -5.225000e+00 -3.900000e-01 1.400000e+01
    endloop
  endfacet
  facet normal -1.000000e+00 0.000000e+00 0.000000e+00
    outer loop
      vertex   -5.225000e+00 -3.900000e-01 1.450000e+01
      vertex   -5.225000e+00 -5.000000e-01 1.450000e+01
      vertex   -5.225000e+00 -5.000000e-01 1.580000e+01
    endloop
  endfacet
  facet normal -1.000000e+00 0.000000e+00 0.000000e+00
    outer loop
      vertex   -5.650000e+00 -1.510000e+00 1.150000e+01
      vertex   -5.650000e+00 -2.700000e+00 1.150000e+01
      vertex   -5.650000e+00 -1.510000e+00 1.450000e+01
    endloop
  endfacet
  facet normal -1.000000e+00 -0.000000e+00 0.000000e+00
    outer loop
      vertex   -5.650000e+00 -1.510000e+00 1.450000e+01
      vertex   -5.650000e+00 -2.700000e+00 1.150000e+01
      vertex   -5.650000e+00 -2.700000e+00 1.580000e+01
    endloop
  endfacet
  facet normal -1.000000e+00 0.000000e+00 0.000000e+00
    outer loop
      vertex   -5.650000e+00 -1.510000e+00 1.450000e+01
      vertex   -5.650000e+00 -2.700000e+00 1.580000e+01
      vertex   -5.650000e+00 -1.400000e+00 1.580000e+01
    endloop
  endfacet
  facet normal -1.000000e+00 0.000000e+00 -0.000000e+00
    outer loop
      vertex   -5.650000e+00 -1.400000e+00 1.580000e+01
      vertex   -5.650000e+00 -1.400000e+00 1.450000e+01
      vertex   -5.650000e+00 -1.510000e+00 1.450000e+01
    endloop
  endfacet
  facet normal -1.806053e-16 -1.000000e+00 0.000000e+00
    outer loop
      vertex   -5.225000e+00 -3.900000e-01 1.400000e+01
      vertex   5.225299e+00 -3.900000e-01 1.400000e+01
      vertex   -5.225000e+00 -3.900000e-01 1.450000e+01
    endloop
  endfacet
  facet normal -1.859172e-16 -1.000000e+00 -1.110223e-16
    outer loop
      vertex   -5.225000e+00 -3.900000e-01 1.450000e+01
      vertex   5.225299e+00 -3.900000e-01 1.400000e+01
      vertex   5.225299e+00 -3.900000e-01 1.450000e+01
    endloop
  endfacet
endsolid
